<?xml version="1.0" standalone="no"?>
<!DOCTYPE svg PUBLIC "-//W3C//DTD SVG 20010904//EN"
 "http://www.w3.org/TR/2001/REC-SVG-20010904/DTD/svg10.dtd">
<svg version="1.0" xmlns="http://www.w3.org/2000/svg"
 width="400.000000pt" height="400.000000pt" viewBox="0 0 400.000000 400.000000"
 preserveAspectRatio="xMidYMid meet">

<g transform="translate(0.000000,400.000000) scale(0.100000,-0.100000)"
fill="#000000" stroke="none">
<path d="M1780 3643 c-309 -46 -549 -136 -786 -294 -153 -103 -364 -313 -464
-464 -119 -179 -194 -354 -248 -578 -25 -105 -26 -126 -26 -342 0 -215 2 -238
27 -345 15 -63 37 -144 48 -180 37 -114 144 -321 224 -433 79 -111 210 -255
222 -244 3 4 0 14 -8 24 -12 15 -12 16 4 10 11 -4 16 -3 12 4 -4 6 -13 8 -20
5 -17 -6 -64 45 -57 63 3 9 0 11 -7 7 -17 -11 -41 12 -34 31 4 10 2 14 -5 10
-6 -4 -20 6 -31 22 -24 33 -26 47 -8 55 6 3 0 3 -16 0 -26 -6 -40 10 -16 18 7
2 5 9 -5 17 -14 12 -16 11 -11 -5 6 -18 5 -18 -7 -1 -7 10 -21 28 -31 40 -10
12 -15 28 -11 40 3 11 2 17 -2 14 -11 -6 -35 18 -27 27 4 3 1 6 -6 6 -8 0 -11
6 -7 16 3 8 2 13 -3 10 -5 -3 -18 12 -30 34 -11 22 -18 40 -15 40 3 0 -4 16
-16 35 -12 19 -18 40 -14 46 4 7 3 9 -3 6 -13 -8 -44 69 -36 91 4 10 2 13 -3
9 -10 -10 -34 76 -29 104 2 11 0 17 -4 14 -9 -5 -21 17 -21 38 0 7 5 6 11 -3
9 -12 10 -12 5 3 -3 10 -6 21 -6 23 0 3 -4 3 -8 0 -4 -2 -8 3 -9 12 -1 32 -13
106 -23 142 -15 59 -16 335 -1 325 6 -3 6 6 1 25 -5 17 -5 32 0 35 5 3 8 13 8
23 -1 28 11 109 20 134 5 13 7 29 4 37 -2 8 0 11 5 8 5 -3 9 10 9 29 0 20 5
38 11 42 6 4 14 28 18 54 7 48 25 59 37 23 5 -17 6 -16 7 7 1 14 -3 28 -8 30
-5 2 -7 15 -4 30 3 15 9 25 14 22 5 -3 6 -10 3 -16 -4 -6 -2 -8 4 -4 7 4 9 -8
7 -36 -4 -60 -26 -129 -38 -121 -6 4 -8 0 -4 -11 7 -17 -6 -82 -22 -116 -4 -8
-8 -32 -9 -53 -2 -20 -6 -47 -11 -60 -6 -17 -7 -278 -1 -442 1 -10 6 -25 12
-32 6 -7 8 -22 5 -33 -3 -11 -1 -23 5 -26 5 -4 7 -20 4 -36 -3 -16 -2 -27 3
-24 11 7 34 -71 25 -86 -5 -7 -3 -8 5 -3 9 5 12 1 10 -11 -1 -11 3 -31 9 -46
12 -28 33 -75 40 -92 3 -5 0 -6 -6 -3 -6 4 -9 -6 -8 -26 2 -24 6 -31 18 -29
11 2 23 -11 34 -35 10 -21 22 -41 27 -44 5 -4 6 -12 2 -19 -6 -9 -4 -11 5 -5
10 6 12 4 6 -11 -4 -10 -4 -15 0 -11 11 11 55 -60 48 -77 -9 -25 -26 -19 -20
7 3 12 3 16 0 9 -3 -6 -10 -10 -15 -6 -17 10 -9 -13 11 -31 12 -11 20 -13 20
-6 0 7 4 9 10 6 6 -4 7 1 3 12 -6 16 -5 16 11 4 9 -8 15 -20 12 -28 -4 -9 -1
-11 6 -7 8 5 9 2 5 -10 -4 -9 -3 -15 2 -12 4 3 13 -6 20 -20 7 -15 16 -22 23
-18 8 5 9 2 5 -10 -4 -10 -3 -15 3 -11 5 3 14 -5 21 -17 7 -13 17 -26 23 -30
6 -4 12 -12 12 -18 1 -5 2 -15 3 -21 0 -5 6 -7 11 -4 13 8 35 -15 35 -35 0 -8
8 -15 17 -15 20 0 36 -14 52 -47 6 -12 18 -23 26 -24 30 -2 32 -4 20 -20 -11
-12 -10 -18 3 -31 15 -15 16 -14 10 6 -5 21 -4 22 16 10 11 -8 21 -17 21 -22
0 -4 5 -5 10 -2 6 3 10 1 10 -4 0 -6 6 -11 13 -11 6 0 35 -16 62 -36 l50 -35
-60 3 c-51 3 -60 6 -57 21 2 9 -2 17 -8 17 -5 0 -10 -5 -10 -11 0 -5 -5 -7
-10 -4 -6 4 -7 11 -4 17 5 7 2 8 -5 3 -9 -5 -10 -10 -2 -18 6 -6 11 -17 11
-25 0 -11 -9 -13 -42 -9 -24 4 -86 12 -138 18 -89 10 -270 43 -403 74 -31 7
-57 10 -57 7 0 -4 79 -49 175 -101 96 -51 180 -100 186 -108 18 -21 0 -33 -75
-46 -36 -6 -66 -14 -66 -17 0 -10 51 -55 94 -84 21 -14 53 -26 70 -26 39 0 56
-16 56 -51 0 -24 8 -32 63 -58 49 -24 88 -34 187 -46 382 -45 461 -49 1005
-49 480 -1 552 2 759 22 224 23 277 35 289 67 3 7 -92 9 -317 7 -176 -1 -329
-4 -338 -6 -10 -2 -18 0 -18 6 0 5 -4 7 -8 4 -4 -2 -14 -1 -21 3 -10 6 -6 26
18 87 17 43 31 85 31 92 0 10 -20 12 -82 10 l-83 -3 -3 -32 c-2 -24 1 -33 12
-33 8 0 18 5 21 10 6 10 85 14 85 5 0 -9 -47 -98 -63 -119 -8 -11 -28 -20 -45
-21 -29 -2 -32 1 -32 28 0 26 -3 29 -25 25 -25 -5 -25 -4 -25 64 0 113 -28
105 -127 -39 -32 -46 -34 -54 -22 -70 12 -15 12 -16 -4 -10 -10 4 -20 7 -23 7
-2 0 -1 26 2 57 4 47 2 64 -15 91 -20 32 -37 38 -91 33 -66 -6 -98 -102 -45
-137 17 -11 36 -14 55 -10 33 6 39 -4 13 -25 -18 -16 -69 -21 -130 -13 l-43 5
0 89 c0 49 -4 91 -9 94 -10 7 -101 -50 -101 -64 0 -13 17 -13 25 0 15 24 25 6
25 -41 0 -95 30 -88 -385 -86 -356 2 -365 2 -372 22 -3 11 -5 33 -4 50 7 101
5 141 -8 151 -12 9 -9 14 16 26 23 11 45 13 104 6 122 -13 549 -38 624 -36 55
1 46 3 -45 8 -131 8 -191 25 -346 101 -108 52 -230 131 -321 204 -30 25 -60
42 -65 38 -6 -3 -8 -2 -5 4 3 5 -12 27 -34 49 -121 117 -238 282 -319 449 -65
133 -99 234 -131 387 -32 151 -32 439 0 588 93 437 323 777 692 1025 204 137
471 234 733 266 110 13 364 7 461 -11 182 -34 351 -89 487 -158 75 -38 85 -44
199 -119 95 -62 227 -180 307 -275 180 -215 289 -441 349 -722 23 -105 26
-145 26 -301 0 -154 -4 -198 -26 -305 -95 -456 -374 -839 -782 -1073 -92 -53
-253 -122 -308 -132 -20 -4 -37 -11 -37 -16 0 -5 10 -7 23 -5 41 9 411 31 496
30 79 -1 109 -13 95 -36 -3 -4 -5 -46 -5 -93 0 -47 -4 -83 -9 -80 -4 3 -10 -1
-13 -9 -3 -8 1 -17 9 -20 9 -3 12 -1 9 4 -3 6 1 10 10 10 23 0 107 58 200 137
l79 67 -32 13 c-39 16 -41 35 -4 54 137 71 232 137 232 162 0 5 -14 7 -32 3
-118 -25 -249 -46 -285 -46 -23 0 -74 -7 -114 -15 -97 -21 -112 -14 -70 29 32
33 32 33 7 29 -14 -3 -23 -10 -20 -15 4 -6 -2 -7 -17 -3 -46 14 -46 20 5 59
28 22 45 32 37 23 -8 -10 -11 -20 -8 -24 4 -3 12 6 18 20 7 15 16 24 20 21 5
-3 6 2 3 10 -3 9 -2 17 2 17 5 1 19 3 32 4 26 3 38 12 28 22 -4 4 -11 1 -16
-7 -6 -8 -10 -10 -10 -4 0 21 25 35 40 21 12 -10 12 -9 2 4 -9 13 -6 21 21 47
18 18 37 29 41 25 4 -4 4 1 0 11 -5 14 -4 17 4 12 7 -4 12 -2 12 4 0 6 11 23
25 38 21 22 25 23 20 7 -6 -18 -5 -18 5 -2 6 9 8 23 4 30 -5 7 -2 7 10 -2 13
-11 19 -12 29 -2 9 10 8 11 -5 6 -11 -4 -18 -2 -18 4 0 6 5 11 10 11 6 0 9 3
9 8 -3 18 2 32 12 32 6 0 8 -7 5 -16 -4 -9 -2 -13 5 -8 8 4 9 -1 4 -17 -5 -19
-4 -21 4 -9 7 9 11 10 11 3 0 -7 -6 -16 -12 -20 -7 -4 -18 -17 -24 -28 -7 -11
-19 -19 -28 -19 -9 1 -14 -2 -11 -6 9 -15 -6 -39 -21 -33 -10 4 -12 0 -7 -13
4 -12 3 -15 -5 -10 -7 4 -12 1 -12 -8 0 -8 -12 -24 -26 -35 -15 -12 -23 -21
-18 -21 5 0 2 -4 -6 -10 -8 -5 -11 -13 -6 -17 11 -11 110 100 195 217 146 201
246 440 293 700 8 48 13 148 12 275 0 220 -14 310 -76 504 -34 109 -127 300
-189 394 -50 72 -130 169 -136 163 -3 -2 4 -14 14 -25 10 -12 18 -27 18 -34 1
-7 6 -11 13 -10 11 3 16 -9 13 -29 0 -4 15 -23 34 -43 32 -33 40 -47 36 -68
-1 -5 3 -6 9 -2 6 4 18 -10 27 -34 9 -23 20 -41 25 -41 4 0 8 -5 8 -12 0 -9
-3 -9 -12 0 -15 15 -28 15 -28 1 0 -5 4 -8 9 -5 5 3 12 -1 15 -10 4 -9 9 -14
13 -11 8 9 75 -122 68 -133 -3 -5 2 -15 11 -24 8 -9 12 -20 9 -26 -3 -6 2 -22
13 -38 11 -15 17 -33 15 -39 -3 -7 0 -13 7 -13 6 0 9 -4 6 -9 -3 -4 3 -35 13
-67 30 -95 41 -171 47 -330 5 -132 1 -203 -21 -364 -15 -107 -93 -348 -107
-328 -5 8 -6 2 -2 -16 6 -24 4 -28 -8 -24 -11 5 -14 0 -11 -20 4 -21 2 -24 -6
-12 -9 12 -11 9 -11 -15 0 -23 -3 -26 -10 -15 -7 11 -11 4 -16 -28 -4 -24 -13
-49 -20 -56 -7 -8 -10 -16 -7 -20 10 -10 -12 -7 -25 4 -9 7 -9 7 -2 -2 13 -16
13 -41 0 -33 -6 4 -7 -1 -3 -11 5 -13 3 -15 -7 -9 -10 6 -12 4 -7 -8 3 -9 -1
-21 -11 -29 -8 -7 -13 -8 -9 -2 3 6 0 11 -8 11 -10 0 -11 -5 -4 -19 15 -27 -6
-22 -25 7 -9 14 -12 25 -6 25 5 0 10 7 10 16 0 8 5 12 10 9 6 -4 9 -1 8 7 -2
7 3 12 11 10 9 -2 12 4 8 18 -3 11 -2 20 3 20 4 0 17 18 28 40 10 22 23 36 27
32 5 -4 5 -1 1 6 -4 7 4 32 17 57 14 24 30 60 37 80 6 19 15 35 20 35 4 0 8 6
7 13 0 6 1 21 2 32 1 17 3 18 11 5 8 -11 9 -7 4 14 -5 19 -3 27 4 22 6 -4 8 2
4 16 -4 17 -2 20 11 15 14 -5 15 -3 5 13 -9 14 -9 25 0 45 7 14 12 36 12 49 0
13 7 26 15 30 8 3 15 11 15 18 0 9 -3 9 -11 -2 -8 -11 -9 -8 -4 15 4 17 11 86
16 155 11 130 -3 386 -22 422 -5 10 -6 30 -3 45 4 16 3 24 -2 20 -8 -8 -35 88
-36 133 0 14 -3 19 -6 11 -2 -8 -10 2 -18 24 -7 20 -10 44 -7 53 5 11 3 13 -7
7 -10 -6 -12 -3 -8 13 4 12 2 19 -3 16 -5 -3 -12 9 -15 26 -4 17 -10 33 -15
36 -4 2 -5 12 -2 21 4 11 2 14 -5 9 -14 -9 -46 39 -36 55 4 8 3 9 -4 5 -12 -7
-16 10 -13 44 2 13 1 13 -8 0 -6 -8 -11 -13 -12 -10 -3 8 -10 54 -12 72 -1 9
-5 14 -10 11 -5 -3 -6 4 -3 15 4 11 3 23 -2 26 -6 3 -9 -2 -8 -11 0 -9 -5 -18
-13 -21 -8 -3 -11 0 -7 7 4 6 2 19 -4 28 -10 16 -11 16 -5 -2 8 -27 -50 41
-67 78 -7 15 -21 30 -30 33 -11 3 -15 11 -11 21 5 12 3 14 -7 8 -10 -6 -12 -4
-7 9 4 10 3 15 -3 11 -6 -3 -10 -1 -10 5 0 6 -4 8 -10 5 -5 -3 -10 1 -10 9 0
9 -6 15 -12 13 -7 -1 -12 5 -10 13 2 8 0 12 -4 8 -10 -11 -35 12 -27 26 3 6 3
8 -2 4 -13 -12 -34 11 -28 30 4 13 3 14 -5 4 -7 -10 -16 -8 -41 13 -17 15 -29
31 -25 36 3 5 -3 9 -13 9 -22 1 -58 27 -58 43 0 7 -9 13 -20 13 -19 1 -139 74
-122 74 4 0 -1 10 -13 22 -11 12 -23 18 -27 15 -3 -4 -2 -7 4 -7 6 0 13 -7 16
-15 5 -12 2 -12 -18 -3 -13 6 -22 15 -18 21 3 6 2 7 -4 4 -6 -4 -27 2 -47 12
-23 12 -32 21 -24 25 7 3 2 3 -11 0 -17 -5 -21 -3 -16 6 5 8 4 11 -3 6 -9 -5
-69 13 -137 43 -41 18 -105 41 -113 40 -21 -4 -43 2 -38 10 3 4 -7 6 -22 4
-22 -3 -24 -2 -7 5 14 6 -1 9 -50 10 -38 0 -99 5 -135 12 -71 13 -308 19 -313
8 -2 -7 -128 -19 -199 -20 -24 0 -36 -4 -31 -10 4 -7 -4 -9 -20 -6 -15 3 -24
2 -22 -2 6 -9 -64 -19 -83 -12 -10 3 -10 7 0 20 12 14 11 14 -9 1 -22 -13 -22
-14 -2 -24 17 -10 8 -15 -73 -44 -51 -18 -106 -36 -123 -41 -16 -4 -25 -9 -20
-9 10 -1 -70 -41 -90 -44 -5 -1 -18 -10 -29 -19 -15 -14 -23 -15 -40 -6 -20
11 -20 10 -6 -7 14 -17 13 -18 -3 -12 -10 4 -16 3 -12 -3 6 -9 -34 -36 -47
-32 -5 1 -8 -3 -8 -9 0 -5 -5 -7 -10 -4 -6 4 -9 2 -8 -3 2 -6 0 -10 -5 -11 -8
-1 -28 -16 -57 -45 -11 -10 -24 -15 -31 -11 -7 5 -10 4 -6 -2 8 -12 -25 -41
-41 -35 -7 2 -10 -2 -6 -11 6 -16 -49 -61 -60 -49 -4 4 -6 0 -4 -8 2 -9 -3
-14 -12 -12 -8 2 -12 1 -8 -3 11 -11 -29 -48 -43 -39 -8 5 -11 2 -6 -8 3 -9
-3 -24 -16 -35 -38 -34 -47 -36 -56 -11 -10 28 25 82 47 73 16 -6 42 11 42 28
0 5 -10 2 -22 -9 -23 -20 -17 -3 9 28 16 17 48 14 36 -5 -4 -6 -1 -7 7 -2 10
6 10 11 -4 20 -15 11 -15 13 3 26 10 8 46 38 81 67 34 29 66 50 71 46 5 -3 8
-1 7 4 -6 21 99 90 125 84 5 -2 6 2 3 7 -7 11 89 63 99 53 5 -4 5 -1 1 6 -4 7
-2 12 6 12 7 0 39 14 72 30 90 46 299 110 426 131 304 50 572 30 858 -63 88
-29 120 -44 110 -50 -10 -7 -9 -8 4 -4 27 8 182 -60 172 -76 -3 -4 2 -5 10 -2
9 3 16 2 16 -4 0 -6 -5 -12 -12 -14 -7 -3 -5 -7 6 -11 10 -4 15 -3 11 3 -3 6
0 10 8 10 20 0 58 -35 49 -45 -4 -5 -2 -5 5 -1 17 9 75 -22 67 -36 -4 -7 -3
-8 4 -4 14 8 92 -51 89 -68 -1 -6 5 -11 14 -11 22 0 102 -72 94 -84 -3 -6 -10
-9 -14 -7 -4 3 -8 -1 -8 -9 0 -13 3 -12 18 1 16 14 21 15 36 3 45 -34 -50 60
-117 116 -241 201 -540 333 -861 380 -97 14 -388 19 -459 8z m117 -69 c-3 -3
-12 -4 -19 -1 -8 3 -5 6 6 6 11 1 17 -2 13 -5z m-1206 -586 c9 2 7 -3 -5 -17
-18 -20 -20 -20 -33 -3 -13 15 -13 14 -3 -7 7 -13 8 -26 3 -30 -5 -3 -19 -22
-32 -41 -12 -19 -20 -27 -17 -17 3 9 1 17 -5 17 -6 0 -6 7 1 20 6 11 8 25 5
30 -3 5 6 28 21 51 l26 42 12 -24 c7 -13 19 -23 27 -21z m-96 -65 c-4 -10 -8
-36 -9 -59 -1 -44 -21 -78 -39 -67 -6 3 -7 1 -3 -5 4 -6 -5 -29 -19 -51 -14
-23 -25 -45 -25 -51 0 -5 -4 -10 -10 -10 -5 0 -10 5 -10 10 0 6 -5 10 -11 10
-8 0 -8 -4 1 -15 9 -11 9 -22 0 -50 -6 -19 -15 -33 -20 -30 -4 3 -6 -3 -4 -12
3 -10 -2 -27 -11 -38 -15 -19 -15 -19 -9 8 4 15 2 27 -4 27 -18 0 -23 32 -8
49 8 9 15 21 16 26 6 29 21 56 35 61 8 4 15 10 15 16 0 5 -5 6 -12 2 -12 -7
-5 8 15 34 8 11 12 11 19 0 6 -9 7 -5 3 10 -5 17 -1 24 17 31 13 5 24 5 26 0
2 -5 8 -9 13 -9 6 0 7 5 4 10 -3 6 -1 10 4 10 6 0 11 5 11 11 0 8 -5 8 -15 -1
-12 -10 -15 -10 -16 1 0 10 -2 11 -6 2 -2 -7 -11 -13 -20 -13 -12 0 -12 2 -1
14 7 7 24 32 38 54 25 41 49 58 35 25z m2799 -89 c3 -8 2 -12 -4 -9 -6 3 -10
10 -10 16 0 14 7 11 14 -7z m-382 -2204 c-11 -11 -36 -17 -67 -17 -28 -1 -41
1 -30 4 11 3 25 10 30 15 7 8 5 9 -5 4 -8 -4 -4 1 9 12 20 16 29 17 52 9 27
-11 27 -12 11 -27z m-2008 -49 c43 -1 28 -8 -34 -14 -30 -3 -49 -4 -41 0 11 4
11 7 0 14 -9 5 -3 7 16 4 17 -2 43 -4 59 -4z m2054 -10 c4 -11 -3 -13 -28 -8
-18 4 -49 8 -69 9 -35 1 -34 1 9 7 65 9 83 8 88 -8z m-1900 -51 l3 -43 -78 7
c-129 10 -254 28 -248 35 7 7 294 50 310 46 6 -1 11 -21 13 -45z m1832 24
c126 -16 196 -32 145 -34 -11 0 -74 -7 -140 -15 -66 -8 -135 -15 -152 -15 -32
0 -33 2 -33 38 0 44 7 54 29 48 9 -3 77 -12 151 -22z m-1793 -1 c-8 -7 52 -38
66 -34 5 1 5 -4 1 -10 -4 -7 0 -9 14 -5 11 4 23 2 27 -4 6 -10 -26 -15 -80
-11 -34 3 -46 17 -40 46 5 26 4 25 12 25 3 0 3 -3 0 -7z m1590 -28 c2 -35 2
-35 -42 -35 -24 0 -50 -3 -58 -6 -8 -3 -17 2 -21 11 -3 9 -1 15 7 14 13 -2 49
11 57 21 3 3 16 11 30 17 14 6 25 12 25 12 0 1 1 -15 2 -34z m-130 -41 c-3 -3
-12 -4 -19 -1 -8 3 -5 6 6 6 11 1 17 -2 13 -5z m396 -1 c-7 -2 -19 -2 -25 0
-7 3 -2 5 12 5 14 0 19 -2 13 -5z m-1139 -109 c17 -44 -6 -93 -38 -81 -17 7
-27 57 -15 79 12 22 45 23 53 2z m176 -64 c0 -28 -22 -51 -36 -37 -5 5 26 67
33 67 2 0 3 -14 3 -30z m97 -86 c-3 -3 -12 -4 -19 -1 -8 3 -5 6 6 6 11 1 17
-2 13 -5z"/>
<path d="M616 2913 c-6 -14 -5 -15 5 -6 7 7 10 15 7 18 -3 3 -9 -2 -12 -12z"/>
<path d="M481 2765 c0 -5 3 -17 7 -26 6 -14 9 -15 20 -3 10 11 10 14 -2 14 -8
0 -17 6 -19 13 -3 6 -5 8 -6 2z"/>
<path d="M1190 506 c0 -2 7 -7 16 -10 8 -3 12 -2 9 4 -6 10 -25 14 -25 6z"/>
<path d="M2750 520 c-8 -5 -10 -10 -5 -10 6 0 17 5 25 10 8 5 11 10 5 10 -5 0
-17 -5 -25 -10z"/>
<path d="M2310 3593 c8 -3 18 -11 22 -17 4 -6 10 -7 15 -3 9 10 -16 27 -37 26
-13 -1 -13 -1 0 -6z"/>
<path d="M2230 3580 c8 -5 22 -9 30 -9 10 0 8 3 -5 9 -27 12 -43 12 -25 0z"/>
<path d="M1430 3510 c-20 -6 -21 -8 -5 -8 11 0 29 3 40 8 25 11 -1 11 -35 0z"/>
<path d="M1314 3495 c-10 -8 -14 -15 -7 -15 6 0 15 5 18 10 4 6 11 7 17 4 7
-4 8 -2 4 4 -9 15 -8 15 -32 -3z"/>
<path d="M2728 3443 c7 -3 16 -2 19 1 4 3 -2 6 -13 5 -11 0 -14 -3 -6 -6z"/>
<path d="M1888 3414 c-36 -19 -48 -43 -48 -94 0 -23 -6 -48 -12 -55 -7 -8 -19
-21 -26 -30 -8 -9 -25 -15 -40 -13 -23 3 -27 10 -40 68 -11 50 -12 68 -2 83
16 27 7 31 -41 21 -40 -9 -67 -34 -36 -34 18 0 51 -150 36 -165 -7 -7 -38 19
-91 73 -57 59 -83 80 -88 70 -4 -7 -10 -53 -14 -102 -3 -49 -9 -100 -12 -113
-6 -22 -4 -23 22 -17 40 9 53 23 32 35 -25 14 -11 47 23 54 36 8 52 -2 45 -27
-5 -23 -6 -23 129 6 119 26 115 24 115 51 0 31 7 31 38 3 17 -17 36 -23 69
-23 38 0 49 5 74 33 48 53 36 147 -22 178 -35 18 -76 17 -111 -2z m93 -30 c14
-17 18 -98 7 -126 -11 -26 -63 -23 -82 4 -35 49 -9 138 38 138 13 0 29 -7 37
-16z m-437 -155 c-10 -16 -24 -9 -24 12 0 18 2 19 15 9 8 -7 12 -16 9 -21z"/>
<path d="M2066 3422 c-3 -6 0 -14 7 -19 7 -4 27 -51 43 -103 20 -63 35 -95 44
-95 8 0 34 36 58 80 23 44 49 85 58 92 22 16 9 33 -27 33 -24 0 -29 -4 -25
-17 3 -10 -7 -39 -22 -65 l-28 -48 -17 52 c-12 38 -13 55 -5 65 6 7 8 16 5 19
-11 11 -85 16 -91 6z"/>
<path d="M2413 3404 c-18 -25 -21 -25 -62 -14 -47 12 -60 8 -42 -13 14 -18 41
-105 41 -135 0 -12 -9 -30 -20 -39 -11 -10 -20 -21 -20 -25 0 -13 82 -30 92
-20 6 6 6 12 -1 16 -22 14 -10 47 30 91 23 25 52 48 65 51 42 11 31 27 -25 39
-28 6 -33 5 -28 -8 5 -15 -26 -57 -42 -57 -8 0 -20 32 -21 52 0 4 20 21 45 38
25 17 43 35 40 41 -11 17 -33 9 -52 -17z"/>
<path d="M1126 3387 c3 -10 9 -15 12 -12 3 3 0 11 -7 18 -10 9 -11 8 -5 -6z"/>
<path d="M2855 3361 c-3 -5 0 -13 6 -17 7 -4 9 -3 5 4 -3 6 2 13 11 15 16 4
16 5 1 6 -9 0 -19 -3 -23 -8z"/>
<path d="M2615 3280 c8 -24 -49 -136 -77 -151 -26 -14 -23 -23 17 -42 46 -22
58 -21 50 3 -3 11 -2 28 4 37 9 16 11 15 20 -10 6 -16 8 -39 5 -52 -4 -18 -1
-25 18 -30 12 -4 58 -32 102 -63 76 -54 79 -55 104 -39 38 22 42 42 7 33 -28
-7 -75 14 -75 34 0 23 74 120 91 120 30 0 22 17 -18 45 l-38 25 -3 -26 c-4
-28 -76 -134 -91 -134 -15 0 -31 26 -46 76 -8 27 -15 52 -15 56 0 9 59 28 91
28 35 0 37 13 7 34 -24 17 -63 22 -54 7 6 -9 -53 -35 -61 -27 -9 9 11 36 28
36 31 0 22 18 -21 40 -49 25 -53 25 -45 0z"/>
<path d="M965 3270 c3 -5 8 -10 11 -10 2 0 4 5 4 10 0 6 -5 10 -11 10 -5 0 -7
-4 -4 -10z"/>
<path d="M1273 3240 c-59 -27 -81 -50 -49 -50 22 0 87 -126 80 -155 -3 -14 -3
-25 1 -25 20 0 129 67 142 87 20 30 9 70 -21 85 -14 6 -22 16 -19 24 6 15 -39
64 -59 64 -7 0 -41 -13 -75 -30z m83 -31 c3 -6 -3 -21 -15 -33 -22 -21 -22
-21 -37 -2 -8 11 -14 26 -14 33 0 16 56 18 66 2z m38 -75 c9 -8 16 -17 16 -19
0 -9 -33 -35 -43 -35 -7 0 -18 10 -26 22 -12 19 -11 23 5 35 23 17 29 16 48
-3z"/>
<path d="M825 3179 c-11 -17 1 -21 15 -4 8 9 8 15 2 15 -6 0 -14 -5 -17 -11z"/>
<path d="M1112 3140 c-72 -50 -72 -51 -56 -75 21 -32 32 -32 36 2 5 43 20 36
66 -27 31 -43 42 -65 37 -80 -9 -28 11 -26 52 6 32 25 37 49 8 37 -8 -3 -15
-1 -15 3 0 5 -18 33 -40 62 -22 29 -40 57 -40 62 0 6 14 10 30 10 31 0 39 17
18 38 -17 17 -18 17 -96 -38z"/>
<path d="M3260 3085 c10 -12 10 -15 -1 -15 -12 0 -12 -2 0 -9 8 -5 20 -7 27
-4 9 3 8 9 -4 24 -9 10 -20 19 -25 19 -5 0 -4 -7 3 -15z"/>
<path d="M996 3051 c-26 -27 -27 -44 -1 -35 20 8 104 -101 98 -126 -7 -27 -38
-43 -60 -31 -32 17 -93 90 -93 111 0 27 -11 25 -43 -8 -31 -32 -34 -42 -12
-42 8 0 39 -25 68 -55 65 -67 93 -71 143 -21 47 47 44 73 -16 142 -28 32 -48
64 -46 71 10 25 -11 22 -38 -6z"/>
<path d="M2980 3054 c0 -10 -20 -42 -45 -72 -56 -67 -59 -101 -14 -143 49 -45
80 -40 143 26 29 30 61 55 71 55 16 0 15 4 -10 30 -27 29 -49 32 -39 7 3 -8
-14 -34 -36 -60 -31 -34 -49 -47 -69 -47 -30 0 -51 16 -51 38 0 23 80 112 101
112 28 0 23 23 -11 48 -35 26 -40 27 -40 6z"/>
<path d="M3310 2960 c6 -11 17 -20 25 -20 7 0 15 -5 17 -12 3 -8 7 -6 11 5 3
9 3 16 -1 16 -24 -4 -42 3 -42 16 0 8 -5 15 -10 15 -7 0 -7 -6 0 -20z"/>
<path d="M1816 2944 c-384 -70 -700 -376 -782 -757 -20 -93 -20 -298 0 -393
96 -453 493 -774 956 -774 228 0 459 82 625 223 97 83 146 138 208 239 97 154
140 307 141 498 1 199 -38 340 -141 514 -65 109 -211 255 -321 320 -209 124
-457 171 -686 130z m79 -54 c29 -11 30 -21 12 -125 l-12 -70 -165 -97 -166
-98 -142 -6 -142 -7 0 52 c0 48 3 56 47 102 111 118 248 198 433 249 65 19 86
18 135 0z m309 4 c120 -30 196 -65 270 -125 40 -32 78 -64 85 -72 8 -10 11
-45 9 -104 l-3 -88 -168 -3 -167 -2 -138 86 c-75 47 -143 91 -149 98 -10 9
-10 31 -1 103 l11 92 56 11 c31 6 61 13 66 15 23 8 71 4 129 -11z m475 -593
l103 -169 -76 -174 -75 -173 -159 -3 -160 -2 -89 137 c-49 76 -98 152 -108
170 l-19 32 64 163 c35 90 68 169 73 176 7 9 55 12 177 12 l167 0 102 -169z
m-1073 0 c30 -85 54 -162 54 -171 0 -10 -42 -90 -92 -179 l-93 -162 -102 7
c-169 11 -162 7 -198 99 -17 44 -44 116 -59 160 l-29 80 73 130 c40 72 81 145
92 163 l20 33 140 -3 140 -3 54 -154z m1317 -247 c12 -158 -25 -340 -98 -484
-51 -99 -53 -102 -97 -90 -20 6 -39 18 -42 28 -3 9 -10 69 -17 133 l-12 117
73 172 c40 94 79 178 87 186 8 8 33 14 57 14 l43 0 6 -76z m-868 41 c11 -3 33
-26 50 -52 16 -26 62 -99 102 -161 40 -62 73 -118 73 -125 -1 -6 -43 -79 -94
-162 l-93 -150 -205 -3 -205 -2 -55 92 c-31 51 -72 125 -93 163 l-38 70 78
135 c42 74 88 152 101 173 l25 37 167 -5 c92 -4 176 -8 187 -10z m-922 -180
c60 -162 109 -407 88 -428 -13 -13 -29 6 -69 88 -75 150 -122 394 -95 494 8
31 9 28 76 -154z m209 -533 c91 -75 282 -230 302 -244 6 -4 8 -9 5 -12 -6 -7
-120 51 -189 95 -89 58 -237 209 -224 230 3 5 7 9 9 9 2 0 46 -35 97 -78z
m1393 50 c0 -18 -121 -139 -190 -190 -92 -68 -271 -152 -324 -152 -30 0 75 92
262 229 173 127 190 138 220 132 18 -4 32 -12 32 -19z m-548 -108 c54 -47 99
-89 101 -93 1 -3 -34 -42 -78 -86 l-81 -80 -147 0 c-190 1 -214 9 -316 97
-114 99 -112 98 -101 106 6 4 34 35 63 69 l53 62 92 4 c51 1 142 4 204 5 l111
2 99 -86z"/>
<path d="M796 2856 c-46 -53 -59 -83 -31 -73 8 4 39 -14 74 -44 45 -37 58 -54
54 -69 -8 -31 12 -24 48 18 l33 37 -24 3 c-37 6 -72 36 -57 51 6 6 19 11 29
11 24 0 23 12 -5 38 -29 27 -51 29 -42 3 3 -10 -1 -23 -8 -30 -11 -8 -18 -6
-32 9 -17 19 -17 21 0 40 11 13 25 18 37 14 21 -6 25 15 6 34 -21 21 -35 14
-82 -42z"/>
<path d="M3153 2896 c7 -18 -104 -116 -132 -116 -12 0 -21 -3 -21 -6 0 -15 88
-105 112 -115 23 -9 33 -8 53 5 14 9 25 23 25 31 0 8 13 21 29 30 54 27 50 69
-14 143 -36 41 -62 56 -52 28z m56 -78 c15 -40 -23 -65 -49 -33 -10 13 -10 19
5 35 23 26 34 25 44 -2z m-70 -64 c9 -20 9 -30 0 -40 -15 -18 -28 -18 -51 3
-18 16 -18 17 4 40 27 29 32 29 47 -3z"/>
<path d="M3520 2619 c0 -5 5 -7 10 -4 6 3 10 8 10 11 0 2 -4 4 -10 4 -5 0 -10
-5 -10 -11z"/>
<path d="M727 2583 c-3 -5 -8 -23 -12 -40 -8 -40 -16 -46 -68 -47 -52 -1 -55
-15 -11 -46 36 -26 38 -39 18 -107 -9 -31 9 -29 51 3 l35 26 39 -31 c22 -17
42 -28 45 -23 3 5 -2 28 -10 52 l-15 45 41 35 c23 19 38 39 34 43 -4 4 -28 7
-54 7 l-47 0 -13 45 c-12 42 -23 55 -33 38z m28 -73 c6 -27 10 -30 46 -30 21
0 39 -2 39 -5 0 -3 -12 -16 -27 -29 -26 -22 -26 -26 -15 -62 6 -21 9 -40 7
-42 -2 -2 -16 5 -31 17 -33 26 -39 26 -71 1 -33 -26 -38 -20 -23 25 11 33 10
37 -14 56 -35 28 -33 39 10 39 30 0 37 4 45 30 6 17 15 30 19 30 5 0 11 -13
15 -30z"/>
<path d="M3208 2545 c-11 -40 -15 -45 -43 -46 -58 -2 -68 -4 -71 -14 -2 -5 14
-22 36 -38 l39 -28 -14 -46 c-8 -26 -12 -50 -9 -54 3 -5 23 5 46 21 l41 30 33
-25 c41 -32 58 -32 50 -2 -14 46 -18 87 -10 87 17 0 66 52 57 61 -4 4 -28 9
-52 11 -42 3 -45 5 -59 46 -7 23 -18 42 -23 42 -5 0 -14 -20 -21 -45z m41 -35
c8 -26 15 -30 45 -30 43 0 46 -11 10 -38 -25 -18 -26 -21 -14 -56 15 -46 7
-56 -23 -28 -29 27 -38 27 -69 2 -32 -25 -39 -18 -25 27 10 33 9 37 -16 57
-36 29 -34 36 9 36 31 0 37 4 47 30 6 17 14 30 18 30 4 0 12 -13 18 -30z"/>
<path d="M341 2404 c0 -11 3 -14 6 -6 3 7 2 16 -1 19 -3 4 -6 -2 -5 -13z"/>
<path d="M330 2314 c0 -8 5 -12 10 -9 6 4 8 11 5 16 -9 14 -15 11 -15 -7z"/>
<path d="M3641 2224 c0 -11 3 -14 6 -6 3 7 2 16 -1 19 -3 4 -6 -2 -5 -13z"/>
<path d="M537 2103 c-14 -48 -14 -48 -60 -51 -26 -2 -47 -7 -47 -12 0 -4 14
-20 32 -35 31 -26 31 -27 21 -78 -6 -29 -9 -53 -8 -55 2 -2 22 9 44 24 l41 27
41 -27 c22 -15 43 -25 46 -22 3 3 -2 25 -10 50 l-16 46 40 32 c21 17 39 35 39
40 0 4 -22 8 -49 8 l-49 0 -17 50 c-9 28 -21 50 -26 50 -4 0 -15 -21 -22 -47z
m38 -33 c6 -27 10 -30 46 -30 46 0 49 -11 12 -39 -24 -20 -25 -24 -15 -58 6
-20 9 -39 7 -42 -3 -2 -19 5 -35 18 l-30 22 -30 -22 c-16 -13 -32 -20 -35 -18
-2 3 1 22 7 42 10 34 9 38 -15 58 -37 28 -34 39 12 39 36 0 40 3 46 30 4 17
10 30 15 30 5 0 11 -13 15 -30z"/>
<path d="M3388 2104 l-14 -49 -52 -3 c-29 -2 -52 -7 -52 -11 0 -4 18 -22 39
-39 l40 -32 -16 -46 c-8 -25 -13 -47 -10 -50 3 -3 24 7 46 22 l41 27 38 -27
c42 -30 50 -21 33 40 -10 35 -8 38 24 67 19 17 35 34 35 38 0 4 -21 9 -47 11
-44 3 -47 5 -60 43 -21 60 -30 62 -45 9z m42 -51 c0 -9 14 -13 40 -13 47 0 50
-10 13 -40 -25 -20 -26 -24 -16 -60 12 -45 7 -49 -31 -19 l-26 20 -31 -21
c-37 -27 -46 -21 -29 21 13 30 12 33 -17 60 -36 31 -33 39 14 39 29 0 36 5 45
32 10 29 12 30 25 13 7 -11 13 -25 13 -32z"/>
<path d="M281 1924 c0 -11 3 -14 6 -6 3 7 2 16 -1 19 -3 4 -6 -2 -5 -13z"/>
<path d="M811 1678 c-5 -13 -10 -32 -12 -43 -4 -16 -13 -21 -57 -23 -37 -2
-52 -7 -52 -18 0 -7 3 -14 8 -14 4 0 20 -12 36 -26 27 -24 28 -26 17 -71 -7
-25 -10 -48 -7 -51 3 -3 24 8 46 23 l40 28 34 -27 c30 -22 56 -33 56 -23 0 2
-7 25 -16 51 -9 26 -15 48 -13 49 43 28 78 60 74 68 -4 5 -28 9 -54 9 l-49 0
-11 45 c-12 49 -27 57 -40 23z m33 -53 c13 -31 19 -35 50 -35 43 0 44 -4 9
-34 -25 -21 -26 -25 -16 -64 12 -48 9 -50 -31 -17 l-30 24 -29 -25 c-16 -14
-32 -23 -34 -20 -3 3 0 21 7 42 12 36 11 37 -21 63 l-34 26 45 5 c40 5 45 8
52 38 5 17 11 32 13 32 3 0 11 -16 19 -35z"/>
<path d="M3118 1656 l-12 -46 -46 0 c-26 0 -50 -3 -54 -7 -4 -4 11 -24 34 -43
l41 -35 -16 -44 c-8 -24 -15 -45 -15 -47 0 -11 25 -1 55 22 35 27 56 24 85
-10 22 -27 43 -20 36 12 -19 77 -19 77 18 103 50 34 46 47 -16 51 -52 3 -53 4
-63 42 -16 56 -32 56 -47 2z m92 -64 l43 -3 -33 -28 c-32 -26 -33 -28 -20 -65
6 -20 10 -39 7 -42 -2 -3 -18 6 -34 20 -29 24 -29 24 -53 5 -39 -29 -50 -25
-37 16 10 32 8 38 -18 65 l-29 30 38 0 c33 0 39 4 53 38 l16 37 12 -35 c11
-32 16 -35 55 -38z"/>
<path d="M3620 1551 c0 -7 -5 -9 -12 -5 -7 5 -8 3 -3 -5 5 -9 10 -10 18 -2 6
6 8 14 4 18 -4 3 -7 1 -7 -6z"/>
<path d="M3612 1491 c-6 -17 -9 -31 -6 -31 7 0 25 52 20 57 -2 2 -8 -10 -14
-26z"/>
<path d="M929 1325 c-1 -5 -1 -17 0 -27 1 -9 -28 -46 -65 -82 -49 -50 -71 -65
-85 -61 -35 12 -20 -20 39 -78 68 -67 104 -79 145 -47 16 13 27 31 27 46 0 15
6 24 15 24 26 0 55 38 55 71 0 25 -13 45 -65 98 -35 36 -65 62 -66 56z m63
-102 c21 -19 23 -44 6 -61 -16 -16 -29 -15 -58 8 l-25 19 24 25 c29 31 29 31
53 9z m-64 -122 c-4 -34 -46 -41 -73 -11 -18 20 -18 21 11 51 l29 30 18 -22
c10 -12 17 -34 15 -48z"/>
<path d="M2944 1278 c-3 -5 27 -50 66 -100 40 -49 76 -103 82 -119 13 -37 19
-36 41 2 25 44 22 61 -7 53 -32 -8 -43 24 -21 66 19 36 60 42 70 10 4 -11 11
-18 16 -14 8 4 49 77 49 86 0 2 -30 4 -68 5 -37 2 -102 6 -145 11 -43 4 -81 4
-83 0z m136 -65 c0 -5 -4 -14 -9 -22 -8 -12 -12 -12 -25 -2 -23 19 -20 31 9
31 14 0 25 -3 25 -7z"/>
<path d="M2903 1192 c-28 -33 -28 -40 -3 -44 14 -2 30 -24 50 -67 17 -35 25
-61 18 -58 -7 2 -39 13 -70 23 -43 13 -58 22 -58 36 0 28 -22 21 -52 -16 -33
-41 -36 -60 -8 -51 11 4 63 -9 124 -29 93 -32 146 -44 146 -32 0 2 -22 52 -50
111 -27 59 -50 118 -50 131 0 32 -20 30 -47 -4z"/>
<path d="M1085 1040 c-55 -33 -110 -60 -122 -60 -32 0 -28 -21 7 -45 33 -22
46 -19 42 7 -5 26 40 34 72 13 32 -21 36 -64 6 -72 -29 -8 -25 -19 17 -48 51
-34 63 -33 56 8 -3 18 6 76 21 136 24 97 25 121 8 121 -4 0 -52 -27 -107 -60z
m49 -37 c-9 -37 -11 -38 -30 -23 -14 12 -13 15 8 32 30 23 30 23 22 -9z"/>
<path d="M1270 1023 c0 -5 7 -17 15 -27 13 -17 10 -27 -27 -98 -27 -52 -49
-83 -65 -89 -31 -12 -29 -16 13 -34 48 -20 57 -19 49 4 -4 12 6 42 23 78 l30
58 10 -40 c6 -22 16 -67 22 -101 13 -67 23 -89 36 -81 5 3 31 48 58 101 34 66
55 96 67 96 10 0 20 -4 24 -9 10 -17 -59 -184 -78 -189 -29 -8 -14 -26 36 -41
50 -15 67 -11 48 13 -10 12 -6 33 20 105 18 50 36 91 39 91 3 0 14 -6 23 -12
16 -12 15 -19 -4 -101 -15 -61 -26 -90 -40 -97 -32 -17 -22 -28 37 -40 59 -12
80 -7 52 14 -12 9 -15 20 -9 46 l7 35 28 -44 c22 -34 25 -45 15 -52 -7 -4 -10
-11 -7 -15 12 -12 118 -32 123 -24 3 5 -8 21 -23 37 -36 36 -85 120 -78 132 9
13 96 61 112 61 28 0 13 28 -17 34 -55 11 -71 8 -65 -11 4 -13 -5 -24 -34 -41
l-41 -23 7 28 c9 38 13 43 30 43 31 0 6 24 -37 36 -24 6 -57 17 -73 23 l-30
12 31 19 c44 26 48 38 17 46 -27 7 -38 -1 -64 -45 -6 -12 -16 -11 -58 7 -28
12 -53 22 -56 22 -11 0 -6 -28 5 -32 7 -2 0 -26 -19 -63 -27 -54 -31 -57 -35
-35 -34 166 -39 181 -68 195 -31 16 -49 19 -49 8z"/>
<path d="M2700 984 c0 -16 9 -66 20 -112 11 -46 20 -101 20 -124 l0 -40 33 21
c34 21 48 51 24 51 -14 0 -27 20 -27 40 0 4 14 17 32 28 37 23 68 15 68 -18 0
-26 8 -25 53 5 40 28 48 45 19 45 -10 0 -63 28 -117 61 -127 78 -125 77 -125
43z m85 -103 c-14 -14 -17 -14 -25 -1 -19 29 -12 41 15 28 23 -11 24 -13 10
-27z"/>
<path d="M3330 949 c0 -5 5 -7 10 -4 6 3 10 8 10 11 0 2 -4 4 -10 4 -5 0 -10
-5 -10 -11z"/>
<path d="M2578 923 c-42 -17 -48 -28 -19 -36 18 -4 37 -37 56 -97 7 -22 5 -21
-50 10 -113 65 -125 69 -159 55 -35 -15 -37 -28 -6 -33 22 -4 45 -44 76 -130
15 -44 16 -55 5 -61 -8 -5 -11 -13 -7 -19 4 -7 19 -6 44 5 52 21 59 31 30 42
-17 6 -31 25 -45 63 -11 29 -20 54 -18 56 1 1 42 -20 91 -48 131 -73 133 -71
78 64 -25 63 -33 97 -29 117 7 33 4 34 -47 12z"/>
<path d="M735 850 c-3 -5 -2 -10 4 -10 5 0 13 5 16 10 3 6 2 10 -4 10 -5 0
-13 -4 -16 -10z"/>
<path d="M2213 818 c-26 -5 -43 -15 -43 -24 0 -8 6 -14 14 -14 18 0 22 -12 37
-111 10 -64 10 -84 1 -87 -7 -2 -12 -10 -12 -19 0 -11 7 -13 30 -9 17 3 44 9
60 12 34 6 39 20 11 29 -19 6 -31 32 -31 69 0 14 13 6 56 -33 47 -43 60 -50
82 -45 49 12 57 28 20 38 -13 3 -40 20 -61 37 l-38 31 20 22 c27 28 27 70 1
96 -22 22 -73 25 -147 8z m105 -60 c2 -19 -3 -30 -18 -38 -27 -14 -29 -12 -37
35 -6 36 -5 37 23 33 23 -2 30 -9 32 -30z"/>
<path d="M1925 801 c-3 -6 4 -15 15 -21 18 -10 20 -21 20 -100 0 -79 -2 -91
-20 -100 -39 -21 -19 -30 68 -30 69 0 94 4 119 20 58 35 77 98 49 165 -23 55
-67 75 -163 75 -45 0 -84 -4 -88 -9z m192 -83 c23 -70 -21 -145 -79 -136 -22
3 -23 8 -26 95 -2 81 -1 92 15 95 36 9 77 -17 90 -54z"/>
<path d="M3060 690 c-9 -6 -10 -10 -3 -10 6 0 15 5 18 10 8 12 4 12 -15 0z"/>
<path d="M1018 623 c7 -3 16 -2 19 1 4 3 -2 6 -13 5 -11 0 -14 -3 -6 -6z"/>
<path d="M898 443 c6 -2 18 -2 25 0 6 3 1 5 -13 5 -14 0 -19 -2 -12 -5z"/>
<path d="M2308 433 c28 -2 76 -2 105 0 28 2 5 3 -53 3 -58 0 -81 -1 -52 -3z"/>
<path d="M1858 423 c67 -2 177 -2 245 0 67 1 12 3 -123 3 -135 0 -190 -2 -122
-3z"/>
</g>
</svg>
